<svg width="30px" height="30px" class="url-cleaner-icon" fill="currentColor" xmlns="http://www.w3.org/2000/svg" viewBox="0 0 512 512" xml:space="preserve">
    <g stroke-width="0"/>
    <g stroke-linecap="round" stroke-linejoin="round"/>
    <ellipse cx="68.256" cy="125.052" rx="13.184" ry="13.168"/>
    <ellipse cx="103.208" cy="125.052" rx="13.184" ry="13.168"/>
    <ellipse cx="138.16" cy="125.052" rx="13.184" ry="13.168"/>
    <path fill="#007AC9" d="m202.024 104.34-27.808 42.576h282.712V104.34z"/>
    <path fill="#007AC9" d="M488 49.332H24c-13.2 0-24 10.8-24 24v365.336c0 13.2 10.8 24 24 24h464c13.2 0 24-10.8 24-24V73.332c0-13.2-10.8-24-24-24zm-8 372.584L457.856 405.1h-63.632l33.544 25.568h-27.704L366.4 405.1H145.592l-33.664 25.568H84.224l33.544-25.568H54.144L32 421.916V81.332h448v340.584zM90.104 232.476z"/>
    <path d="m183.784 232.484-10.408 44.624c-.672 2.688-1.416 6.2-2.232 10.536-.824 4.344-1.416 7.968-1.792 10.88-.416-3.024-1.008-6.64-1.792-10.848-.784-4.208-1.44-7.344-1.96-9.4l-11.904-45.8h-16.392l-11.904 45.8c-.712 2.464-1.472 5.92-2.264 10.376-.808 4.464-1.312 7.752-1.536 9.872-.824-6.04-2.152-13.176-3.968-21.424l-10.464-44.624H90.104l20.856 81.76h19.688l11.016-42.832c.488-1.896 1.168-5.08 2.072-9.528.888-4.464 1.456-7.696 1.672-9.704.152 1.64.72 4.848 1.712 9.64.984 4.8 1.68 7.952 2.096 9.488l11.072 42.944h19.744l20.808-81.76h-17.056zm110.728-.008L284.104 277.1c-.672 2.688-1.416 6.2-2.232 10.536-.824 4.344-1.416 7.968-1.792 10.88-.416-3.024-1.008-6.64-1.792-10.848-.784-4.208-1.44-7.344-1.96-9.4l-11.904-45.8h-16.392l-11.904 45.8c-.712 2.464-1.472 5.92-2.264 10.376-.808 4.464-1.312 7.752-1.536 9.872-.824-6.04-2.152-13.176-3.968-21.424l-10.464-44.624H200.84l20.856 81.76h19.68l11.016-42.832c.488-1.896 1.168-5.08 2.072-9.528.888-4.464 1.456-7.696 1.672-9.704.152 1.64.72 4.848 1.712 9.64.984 4.8 1.68 7.952 2.096 9.488l11.072 42.944h19.744l20.808-81.76h-17.056zm110.728 0L394.832 277.1c-.672 2.688-1.416 6.2-2.232 10.536-.824 4.344-1.416 7.968-1.792 10.88-.416-3.024-1.008-6.64-1.792-10.848-.784-4.208-1.44-7.344-1.96-9.4l-11.904-45.8H358.76l-11.904 45.8c-.712 2.464-1.472 5.92-2.264 10.376-.808 4.464-1.312 7.752-1.536 9.872-.824-6.04-2.152-13.176-3.968-21.424l-10.464-44.624h-17.056l20.856 81.76h19.68l11.016-42.832c.488-1.896 1.168-5.08 2.072-9.528.888-4.464 1.456-7.696 1.672-9.704.152 1.64.72 4.848 1.712 9.64.984 4.8 1.68 7.952 2.096 9.488l11.072 42.944h19.744l20.808-81.76H405.24z"/>
</svg>
